<?xml version="1.0" encoding="UTF-8"?>
<svg width="88px" height="88px" viewBox="0 0 88 88" version="1.1" xmlns="http://www.w3.org/2000/svg" xmlns:xlink="http://www.w3.org/1999/xlink">
    <title>VK</title>
    <g id="Page-1" stroke="none" stroke-width="1" fill="none" fill-rule="evenodd">
        <g id="Artboard-Copy-3" transform="translate(-429.000000, -699.000000)" fill-rule="nonzero">
            <g id="Order" transform="translate(162.000000, 630.000000)">
                <g id="VK" transform="translate(267.000000, 69.000000)">
                    <path d="M30.5066667,0 L57.4933333,0 C82.1333333,0 88,5.86666667 88,30.5066667 L88,57.4933333 C88,82.1333333 82.1333333,88 57.4933333,88 L30.5066667,88 C5.86666667,88 0,82.1333333 0,57.4933333 L0,30.5066667 C0,5.86666667 5.86666667,0 30.5066667,0 Z" id="Path" fill="#5181B8"></path>
                    <path d="M72.1409064,30.401276 C72.5509568,29.0424395 72.1409064,28.043956 70.1893181,28.043956 L63.735897,28.043956 C62.0950086,28.043956 61.338534,28.9064986 60.9282532,29.8576315 C60.9282532,29.8576315 57.6464673,37.8067371 52.9973858,42.9702015 C51.4932915,44.4648645 50.8095285,44.9404263 49.9890774,44.9404263 C49.5789164,44.9404263 48.9851095,44.4648599 48.9851095,43.1061378 L48.9851095,30.4012806 C48.9851095,28.7706722 48.5089115,28.043956 47.1413855,28.043956 L37.0002952,28.043956 C35.9748834,28.043956 35.3581899,28.8007581 35.3581899,29.5180059 C35.3581899,31.0637847 37.6826154,31.4202626 37.9222125,35.7685395 L37.9222125,45.2123082 C37.9222125,47.2828224 37.5459319,47.6582094 36.7254854,47.6582094 C34.5377434,47.6582094 29.2160541,39.6735943 26.0597965,30.5371024 C25.4412499,28.7612909 24.8208503,28.043956 23.1715356,28.043956 L16.7181145,28.043956 C14.8742799,28.043956 14.5054945,28.9064986 14.5054945,29.8576315 C14.5054945,31.5562035 16.6933472,39.9808756 24.6925009,51.1231063 C30.0252302,58.732362 37.5386949,62.8571429 44.3756336,62.8571429 C48.4777507,62.8571429 48.9852201,61.9410064 48.9852201,60.3629612 L48.9852201,54.6119144 C48.9852201,52.7796414 49.3738313,52.4139701 50.6728451,52.4139701 C51.629975,52.4139701 53.270868,52.8895366 57.0996136,56.558338 C61.4752175,60.9065005 62.1965901,62.8571429 64.6578143,62.8571429 L71.1112354,62.8571429 C72.95507,62.8571429 73.8769873,61.9410064 73.3451517,60.1330614 C72.7631591,58.3311583 70.6740438,55.7168391 67.901986,52.6177647 C66.3977811,50.851339 64.1416374,48.9490778 63.4578744,47.997725 C62.5007445,46.7749439 62.7742266,46.2312947 63.4578744,45.14434 C63.4578744,45.14434 71.3204553,34.1379357 72.1409064,30.401276 L72.1409064,30.401276 Z" id="Path" fill="#FFFFFF"></path>
                </g>
            </g>
        </g>
    </g>
</svg>