<?xml version="1.0" encoding="UTF-8"?>
<svg width="92px" height="92px" viewBox="0 0 92 92" version="1.1" xmlns="http://www.w3.org/2000/svg" xmlns:xlink="http://www.w3.org/1999/xlink">
    <title>WA</title>
    <defs>
        <linearGradient x1="50.0000252%" y1="6.82100323e-05%" x2="50.0000252%" y2="99.9997783%" id="linearGradient-1">
            <stop stop-color="#20B038" offset="0%"></stop>
            <stop stop-color="#60D66A" offset="100%"></stop>
        </linearGradient>
        <linearGradient x1="50.000015%" y1="-5.59716849e-05%" x2="50.000015%" y2="100.000207%" id="linearGradient-2">
            <stop stop-color="#F9F9F9" offset="0%"></stop>
            <stop stop-color="#FFFFFF" offset="100%"></stop>
        </linearGradient>
    </defs>
    <g id="Page-1" stroke="none" stroke-width="1" fill="none" fill-rule="evenodd">
        <g id="Artboard-Copy-3" transform="translate(-163.000000, -698.000000)">
            <g id="Order" transform="translate(162.000000, 630.000000)">
                <g id="WA" transform="translate(1.000000, 68.000000)">
                    <path d="M1.36675113,46.5302947 C1.36434028,38.823001 3.38041676,31.2978309 7.21397563,24.6646153 L7.21397563,24.6646153 L1,2 L24.2186315,8.08172697 C30.615832,4.59910066 37.8179563,2.76100608 45.1481572,2.75859783 L45.1481572,2.75859783 L45.1674441,2.75859783 C69.3058162,2.75859783 88.9548773,22.3797909 88.9648259,46.4962782 L88.9648259,46.4962782 C88.9696438,58.1828992 84.4179518,69.1714296 76.1478193,77.4383398 L76.1478193,77.4383398 C67.8794949,85.70525 56.8826867,90.2604493 45.1656359,90.2658679 L45.1656359,90.2658679 C21.0245515,90.2658679 1.3766959,70.6458789 1.36675113,46.5302947" id="path142-path" fill="url(#linearGradient-1)" fill-rule="nonzero" transform="translate(44.982413, 46.132934) scale(1, -1) translate(-44.982413, -46.132934) "></path>
                    <path d="M0.380914898,46.1269625 C0.378202688,38.1418173 2.46660478,30.3475256 6.43667825,23.4764956 L6.43667825,23.4764956 L0,0 L24.0512801,6.29967333 C30.6781144,2.68971096 38.1391042,0.787496795 45.7317868,0.784486486 L45.7317868,0.784486486 L45.751375,0.784486486 C70.7558464,0.784486486 91.1103835,21.111296 91.1212352,46.0905378 L91.1212352,46.0905378 C91.1254514,58.1970969 86.4101227,69.5802788 77.8446606,78.1440054 L77.8446606,78.1440054 C69.2782944,86.7071299 57.887613,91.425488 45.751375,91.4306056 L45.751375,91.4306056 C20.7426846,91.4306056 0.39085967,71.1074084 0.380914898,46.1269625 M14.7037972,24.659547 L13.8063569,26.0840252 C10.0309599,32.0799583 8.03778652,39.0090872 8.04079668,46.1239522 L8.04079668,46.1239522 C8.04923808,66.8869554 24.9646923,83.7784005 45.7655388,83.7784005 L45.7655388,83.7784005 C55.8383872,83.774186 65.3055087,79.8523557 72.425664,72.7347814 L72.425664,72.7347814 C79.5455179,65.6175082 83.4634567,56.1558065 83.4607459,46.0932471 L83.4607459,46.0932471 C83.4517038,25.3299428 66.5353455,8.43639055 45.751375,8.43639055 L45.751375,8.43639055 L45.7366085,8.43639055 C38.9687392,8.43970189 32.3319601,10.2549181 26.5431988,13.6860682 L26.5431988,13.6860682 L25.1656972,14.5018619 L10.8931415,10.7639614 L14.7037972,24.659547 Z" id="path212" fill="url(#linearGradient-2)" fill-rule="nonzero" transform="translate(45.560619, 45.715303) scale(1, -1) translate(-45.560619, -45.715303) "></path>
                    <path d="M33.7143385,65.7027561 C32.8651153,67.5887146 31.9712913,67.6263434 31.1633539,67.6594568 C30.5024786,67.6877537 29.7460732,67.6859707 28.9908733,67.6859707 C28.2350706,67.6859707 27.0067406,67.4020754 25.967964,66.2689952 C24.928886,65.1359149 22,62.3965338 22,56.8253553 C22,51.2532736 26.06259,45.8696372 26.6288393,45.1134476 C27.1956913,44.3584622 34.4713466,32.5598577 45.9940223,28.020613 C55.5702349,24.248696 57.5188075,24.9988649 59.5975661,25.1876113 C61.6760235,25.3763577 66.3045614,27.9263903 67.2493147,30.5706456 C68.194068,33.2145998 68.194068,35.4807604 67.9104913,35.954583 C67.627216,36.4262984 66.8714134,36.7095684 65.737408,37.2758075 C64.603704,37.8420466 59.0307141,40.5820297 57.9913348,40.9595225 C56.9519555,41.3370152 56.1961528,41.5257616 55.4403501,40.3920792 C54.6845475,39.2596011 52.5129709,36.7095684 51.8517943,35.954583 C51.1903163,35.1977913 50.5291396,35.1032676 49.3951343,35.6695067 C48.2614303,36.237552 44.6104936,37.4320425 40.2790934,41.2897533 C36.9090212,44.2910313 34.6337779,47.9979256 33.9722999,49.1316079 C33.3111232,50.2640861 33.9014811,50.877587 34.4701412,51.4420199 C34.9791327,51.949257 35.6038452,52.7638466 36.1706972,53.4252114 C36.7366451,54.0865763 36.9255958,54.5582917 37.3034971,55.3132771 C37.6813984,56.0697677 37.4924478,56.7308316 37.2088711,57.2970707 C36.9255958,57.8633097 34.7223768,63.4636883 33.7143385,65.7027561" id="path266" fill="#FFFFFF" transform="translate(45.037854, 46.342985) scale(1, -1) translate(-45.037854, -46.342985) "></path>
                </g>
            </g>
        </g>
    </g>
</svg>